<svg width="32" height="31" viewBox="0 0 32 31" fill="none" xmlns="http://www.w3.org/2000/svg">
<path d="M15.9305 0.0879974C18.0745 0.0879974 20.0745 0.503998 21.9305 1.336C23.8185 2.136 25.4505 3.24 26.8265 4.648C28.2345 6.024 29.3385 7.656 30.1385 9.544C30.9705 11.432 31.3865 13.432 31.3865 15.544V28.024C31.3865 28.856 31.0985 29.56 30.5225 30.136C29.9465 30.712 29.2425 31 28.4105 31C27.5785 31 26.8585 30.712 26.2505 30.136C25.6745 29.56 25.3865 28.856 25.3865 28.024V22.264H15.9305V22.216C15.8345 22.248 15.6585 22.264 15.4025 22.264C14.3465 22.264 13.3385 22.424 12.3785 22.744C11.4185 23.064 10.5385 23.512 9.7385 24.088C8.9705 24.664 8.2985 25.352 7.7225 26.152C7.1465 26.952 6.7145 27.832 6.4265 28.792C6.3945 28.824 6.3785 28.856 6.3785 28.888C6.3785 28.92 6.3625 28.952 6.3305 28.984C6.1385 29.592 5.7865 30.088 5.2745 30.472C4.7625 30.824 4.1705 31 3.4985 31C2.6665 31 1.9625 30.712 1.3865 30.136C0.8105 29.56 0.5225 28.856 0.5225 28.024V27.592V15.544C0.5225 13.656 0.8425 11.88 1.4825 10.216C2.2505 8.168 3.4025 6.344 4.9385 4.744C6.3785 3.304 8.0265 2.168 9.8825 1.336C11.7705 0.503998 13.7865 0.0879974 15.9305 0.0879974ZM25.3865 16.264V15.544C25.3865 13.88 24.9865 12.344 24.1865 10.936C24.1865 10.904 24.1705 10.888 24.1385 10.888C24.1385 10.856 24.1385 10.824 24.1385 10.792C24.0105 10.6 23.8825 10.408 23.7545 10.216C23.6265 10.024 23.4985 9.848 23.3705 9.688C22.5065 8.568 21.4345 7.688 20.1545 7.048C18.8745 6.408 17.4665 6.088 15.9305 6.088C14.3945 6.088 12.9705 6.44 11.6585 7.144C10.3785 7.816 9.3065 8.712 8.4425 9.832C7.8345 10.632 7.3545 11.512 7.0025 12.472C6.6825 13.432 6.5225 14.456 6.5225 15.544V19.096C7.7705 18.2 9.1465 17.512 10.6505 17.032C12.1545 16.52 13.7385 16.264 15.4025 16.264H15.9305H25.3865Z" fill="white"/>
</svg>
